<?xml version="1.0" encoding="utf-8" ?>
<svg xmlns="http://www.w3.org/2000/svg" xmlns:xlink="http://www.w3.org/1999/xlink" width="185" height="104">
	<path fill="#AF342B" transform="scale(0.101648 0.101562)" d="M692.608 68.3792C673.6 154.597 597.773 152.511 589.576 181.598C588.722 184.629 588.985 187.703 590.684 190.395C593.178 194.346 597.615 196.93 602.1 197.917C633.095 204.734 693.372 148.035 718.267 129.538C758.748 99.4597 803.58 82.753 854.204 81.1904C909.124 79.4952 973.981 99.0961 1023.7 67.6817C1029.88 63.7743 1038.61 58.7551 1040.34 51.1051C1041.17 55.3078 1040.93 58.7875 1040.26 62.9744C1037.97 77.2115 1031.34 90.8767 1022.51 102.202C969.685 170.027 856.863 116.778 802.086 156.908C794.889 162.181 788.88 169.348 787.573 178.426C786.252 187.604 790.139 196.711 795.627 203.879C802.666 213.074 813.039 220.106 824.696 221.52C835.687 222.778 846.721 219.555 855.308 212.577C869.355 201.29 873.759 184.509 875.773 167.496C875.996 168.085 876.216 168.676 876.433 169.269C895.347 220.972 863.972 240.24 829.75 270.679C821.832 277.722 813.295 285.514 808.858 295.337C806.354 300.882 805.936 306.186 808.255 311.873C811.385 319.55 817.974 325.034 825.541 328.063C836.115 332.295 846.849 331.697 857.53 328.399C913.839 311.013 894.177 250.303 946.507 227.726C986.688 210.391 1038.03 217.846 1077.42 233.641C1085.8 237.001 1102.16 243.032 1105.89 251.781C1102.1 247.432 1091.85 244.939 1086.43 243.379C1055.96 234.618 1015.72 228.3 986.556 244.755C961.566 258.857 971.289 282.026 974.889 304.909C976.986 318.238 977.611 332.076 974.52 345.303C963.92 390.658 922.294 392.726 914.011 422.335C914.555 424.501 915.106 426.689 915.831 428.802C918.098 435.414 922.72 441.101 929.053 444.154C937.62 448.286 948.641 448.353 957.501 445.144C991.167 432.95 970.509 390.875 982.733 366.202C989.075 353.4 1001.59 347.439 1014.47 343.209C991.356 379.893 1009.27 404.796 1004.89 443.117C1002.84 461.904 993.293 479.067 978.416 490.716C955.794 508.643 927.855 510.435 900.249 507.332C897.297 511.103 894.142 514.905 890.372 517.891C880.97 525.336 871.282 525.502 859.96 524.163C830.819 545.901 800.341 565.677 770.94 587.032C768.699 573.519 762.923 562.008 751.979 553.388C741.021 544.757 724.208 539.286 710.19 541.06C701.609 542.145 696.051 545.788 690.829 552.481L687.845 557.624C684.947 565.701 684.565 574.318 682.313 582.528L678.024 594.096C661.838 597.397 650.603 602.252 638.617 613.873C627.272 603.597 615.767 595.37 599.653 596.051C581.869 596.801 568.345 608.586 557.006 621.148C550.292 628.586 543.939 636.409 537.428 644.027C529.132 629.467 520.243 614.04 502.923 609.12C494.302 606.671 484.848 607.39 476.988 611.829C470.36 615.573 465.784 621.135 460.866 626.789C450.998 612.967 442.464 605.982 425.263 602.876C417.125 601.365 408.725 603.293 402.059 608.2C387.569 618.806 382.594 639.048 373.012 653.58C365.282 643.451 358.896 636.061 348.463 628.666C348.05 620.39 347.104 613.166 343.918 605.415C342.744 602.559 340.837 599.551 339.965 596.645C336.238 591.391 331.651 586.803 326.398 583.074C341.462 553.619 354.088 522.667 368.626 492.88C406.018 416.487 445.478 341.125 486.964 266.877C484.738 262.934 482.821 259.026 481.656 254.629C478.598 243.095 480.305 230.815 486.391 220.552C494.014 207.491 506.538 200.367 520.793 196.672C555.019 128.64 616.905 147.894 664.362 105.859C676.404 95.1936 684.794 82.2891 692.608 68.3792Z"/>
	<path fill="#F8F3B7" transform="scale(0.101648 0.101562)" d="M501.561 279.976C608.451 308.513 706.234 375.915 785.081 451.849C805.672 471.68 822.974 494.984 843.877 514.306C830.953 524.001 817.362 532.924 804.113 542.175C791.975 550.648 780.038 559.721 767.179 567.076C780.698 548.879 790.773 533.225 787.641 509.27C785.404 491.247 776.009 474.883 761.575 463.866C746.521 452.64 727.617 447.874 709.042 450.621C690.71 453.22 674.198 463.097 663.236 478.022C651.392 494.024 646.383 513.5 649.452 533.237C652.805 554.808 665.322 570.026 682.313 582.528L678.024 594.096C661.838 597.397 650.603 602.252 638.617 613.873C627.272 603.597 615.767 595.37 599.653 596.051C581.869 596.801 568.345 608.586 557.006 621.148C550.292 628.586 543.939 636.409 537.428 644.027C529.132 629.467 520.243 614.04 502.923 609.12C494.302 606.671 484.848 607.39 476.988 611.829C470.36 615.573 465.784 621.135 460.866 626.789C450.998 612.967 442.464 605.982 425.263 602.876C417.125 601.365 408.725 603.293 402.059 608.2C387.569 618.806 382.594 639.048 373.012 653.58C365.282 643.451 358.896 636.061 348.463 628.666C348.05 620.39 347.104 613.166 343.918 605.415C342.744 602.559 340.837 599.551 339.965 596.645C366.015 536.773 395.739 477.838 425.671 419.814C450.019 372.616 474.22 325.54 501.561 279.976Z"/>
	<path fill="#AF342B" transform="scale(0.101648 0.101562)" d="M462.305 457.275C496.104 456.413 524.251 483.022 525.297 516.824C526.342 550.627 499.893 578.925 466.105 580.155C432.056 581.394 403.498 554.69 402.445 520.626C401.391 486.563 428.244 458.143 462.305 457.275Z"/>
	<path fill="#FEFDFD" transform="scale(0.101648 0.101562)" d="M457.989 473.938C461.151 473.542 465.341 472.916 468.304 474.161L467.871 474.565C460.579 474.168 444.72 482.832 439.345 487.583C430.261 495.528 424.786 506.819 424.173 518.874C423.472 532.86 429.202 543.185 438.275 553.182L440.092 554.826L439.356 555.098C438.71 554.794 438.075 554.476 437.46 554.112C428.586 548.873 421.207 537.681 418.775 527.843C416.155 516.796 418.103 505.158 424.18 495.567C432.076 482.87 443.936 477.173 457.989 473.938Z"/>
	<path fill="#AF342B" transform="scale(0.101648 0.101562)" d="M565.048 364.879C587.534 363.325 607.041 380.254 608.675 402.74C610.308 425.226 593.452 444.798 570.978 446.512C548.39 448.234 528.703 431.27 527.061 408.671C525.42 386.072 542.449 366.44 565.048 364.879Z"/>
	<path fill="#FEFDFD" transform="scale(0.101648 0.101562)" d="M558.737 376.855C560.042 376.983 560.296 376.809 561.34 377.684C559.562 378.791 557.795 379.916 556.039 381.058C548.7 385.851 544.55 390.047 542.783 398.896C541.085 407.328 542.839 416.088 547.653 423.215C553.75 432.164 561.698 434.933 571.789 436.86L571.803 438.018C566.235 438.468 560.513 437.825 555.329 435.683C547.304 432.375 540.983 425.926 537.833 417.837C534.789 410.056 534.753 401.112 538.26 393.474C542.463 384.321 549.775 380.273 558.737 376.855Z"/>
	<path fill="#AF342B" transform="scale(0.101648 0.101562)" d="M576.702 507.096C583.693 505.793 590.844 508.353 595.42 513.797C599.996 519.241 601.29 526.727 598.806 533.392C596.322 540.057 590.444 544.869 583.422 545.988C572.76 547.687 562.713 540.5 560.875 529.859C559.036 519.218 566.089 509.075 576.702 507.096Z"/>
	<path fill="#AF342B" transform="scale(0.101648 0.101562)" d="M477.89 395.988C483.314 394.777 488.968 396.598 492.666 400.747C496.365 404.895 497.529 410.721 495.709 415.972C493.889 421.224 489.369 425.079 483.898 426.047C475.692 427.499 467.831 422.129 466.197 413.956C464.564 405.783 469.758 397.802 477.89 395.988Z"/>
	<path fill="#AF342B" transform="scale(0.101648 0.101562)" d="M515.443 311.545C520.201 310.203 525.312 311.552 528.79 315.066C532.267 318.581 533.562 323.707 532.171 328.452C530.781 333.197 526.924 336.812 522.1 337.892C514.917 339.501 507.759 335.096 505.956 327.958C504.152 320.82 508.359 313.543 515.443 311.545Z"/>
	<path fill="#AF342B" transform="scale(0.101648 0.101562)" d="M636.493 434.174C642.115 433.438 647.325 437.242 648.336 442.822C649.348 448.402 645.803 453.794 640.281 455.078C636.46 455.966 632.461 454.677 629.876 451.725C627.292 448.773 626.542 444.638 627.927 440.966C629.311 437.295 632.604 434.684 636.493 434.174Z"/>
	<path fill="#FEFDFD" transform="scale(0.101648 0.101562)" d="M687.845 557.624C683.863 554.227 680.224 550.863 677.231 546.516C670.168 536.358 667.504 523.779 669.842 511.63C672.414 498.365 680.182 486.68 691.416 479.176C705.595 469.662 719.872 469.084 736.044 472.255C721.716 473.075 708.286 473.935 696.445 483.158C686.683 490.746 680.401 501.956 679.025 514.245C677.314 528.532 682.109 541.329 690.829 552.481L687.845 557.624Z"/>
	<path fill="#FEAA05" transform="scale(0.101648 0.101562)" d="M1023.75 75.8879L1025.77 76.9961L1026.17 79.027C1024.78 86.1558 1017.4 95.416 1012.58 100.838C975.535 142.566 907.946 130.334 858.061 133.49C834.851 134.959 804.415 139.275 788.251 157.959C781.765 165.456 778.223 174.939 779.067 184.895C780.178 197.986 787.836 210.517 797.889 218.735C808.231 227.188 821.525 231.541 834.858 229.958C854.99 227.568 864.855 215.244 876.444 200.453C873.484 209.89 870.042 218.608 864.102 226.618C846.702 250.08 801.501 272.19 798.293 302.506C797.49 310.1 800.251 317.298 805.053 323.135C811.492 330.963 823.872 337.876 834.097 338.786C845.81 339.829 858.712 337.583 869.524 332.993C914.222 314.013 903.576 270.481 934.729 244.611C956.509 226.525 990.471 224.012 1017.47 226.723C1000.51 232.327 982.504 232.194 970.059 247.446C954.437 266.591 965.451 294.209 967.782 316.085C971.129 347.488 958.681 367.317 934.813 385.91C927.579 391.545 919.391 397.075 913.68 404.315C908.645 410.698 906.22 418.11 907.284 426.241C908.464 435.258 912.648 442.602 919.846 448.156C928.568 454.886 939.952 457.148 950.753 455.592C958.316 454.502 965.964 451.328 972.026 446.665C1000.03 425.124 974.006 390.955 995.507 361.727C991.659 400.179 1003.87 428.189 989.192 465.671C988.394 467.082 987.553 468.469 986.671 469.829C976.25 485.774 959.198 494.867 940.933 498.495C932.85 500.101 912.634 503.56 905.82 499.006C904.809 494.715 906.756 488.821 907.286 484.406C909.442 466.457 901.007 450.48 890.263 436.825C880.344 424.218 869.385 412.291 858.607 400.423C785.298 319.696 694.061 250.887 591.044 213.284C571.445 206.13 552.161 198.509 531.3 196.01C550.726 162.084 579.756 152.72 614.793 140.555C627.862 136.017 640.558 130.658 653.287 125.258C638.211 138.675 620.905 145.176 603.898 155.369C591.709 162.675 583.36 170.83 579.809 184.884C579.906 185.325 580.011 185.765 580.123 186.203C582.03 193.591 585.667 200.097 592.495 203.967C620.142 219.634 667.311 179.82 687.755 163.768C699.772 154.332 711.721 144.737 723.952 135.582C736.882 125.886 750.706 117.446 765.237 110.375C813.611 87.071 863.612 88.7753 915.573 92.0332C945.708 93.9226 976.312 94.8773 1005.61 86.2564C1011.77 84.4442 1020.52 81.7945 1023.75 75.8879Z"/>
	<path fill="#AF342B" transform="scale(0.101648 0.101562)" d="M674.557 198.933C733.562 158.412 780.515 111.445 857.732 116.952L858.134 117.439C849.325 119.054 840.361 119.053 831.542 120.568C802.171 125.613 774.9 139.334 757.699 164.409C750.429 175.006 745.189 188.631 747.518 201.629C748.884 209.256 752.541 214.863 756.726 221.209C748.046 213.983 741.497 206.291 740.354 194.554C738.626 176.813 750.095 161.307 760.687 148.371C732.415 165.02 706.03 184.535 677.215 200.298L674.557 198.933Z"/>
	<path fill="#AF342B" transform="scale(0.101648 0.101562)" d="M937.826 299.309C941.779 312.593 938.128 331.074 932.682 343.566C926.628 357.451 916.768 366.633 902.848 372.209C915.243 360.635 922.058 350.694 928.1 334.909C915.599 344.373 904.151 350.903 889.226 355.793C868.926 361.313 849.36 355.681 830.468 348.085C854.831 351.912 878.827 354.329 901.662 343.056C920.851 333.584 931.039 319.312 937.826 299.309Z"/>
	<path fill="#AF342B" transform="scale(0.101648 0.101562)" d="M804.957 243.452C804.977 243.737 805.009 244.021 805.018 244.306C805.096 246.794 792.938 268.742 791.071 273.271C788.699 279.025 787.843 285.316 786.877 291.428C786.301 295.069 785.567 306.91 783.467 308.927C782.185 304.81 781.626 300.757 781.475 296.446C780.739 275.308 791.162 258.31 804.957 243.452Z"/>
	<path fill="#E97605" transform="scale(0.101648 0.101562)" d="M677.215 200.298C673.627 202.384 668.329 205.206 664.135 205.312L663.839 204.49C664.641 205.008 664.861 205.422 665.836 205.284L664.796 203.621C667.561 201.671 671.451 200.356 674.557 198.933L677.215 200.298Z"/>
	<path fill="#F8F3B7" transform="scale(0.101648 0.101562)" d="M527.111 214.357C528.536 214.287 529.986 214.39 531.406 214.52C548.676 216.099 566.615 224.421 582.842 230.452C689.149 269.963 795.254 350.658 867.55 437.399C877.576 449.428 891.395 465.294 889.65 482.101C888.86 489.715 885.73 498.539 879.459 503.346C874.441 507.193 869.865 506.99 863.849 506.255C848.414 496.827 836.801 480.599 824.956 467.175C816.94 458.134 808.661 449.329 800.131 440.771C773.384 414.337 744.844 389.783 714.713 367.284C670.128 333.957 621.638 306.207 570.321 284.65C561.913 281.117 553.43 277.333 544.797 274.4C533.349 270.51 519.947 267.83 509.48 261.743C504.177 258.66 500.289 253.77 498.787 247.765C497.344 241.996 498.719 236.062 501.758 231.045C507.526 221.523 516.677 216.928 527.111 214.357Z"/>
	<path fill="#AF342B" transform="scale(0.101648 0.101562)" d="M1279.08 531.108C1280.69 530.931 1282.3 530.828 1283.92 531.004C1293.12 532.005 1303.42 540.628 1308.71 547.795C1316.49 558.346 1317.61 571.398 1314.72 583.885C1307.68 614.235 1267.15 665.966 1250.2 696.358C1245.6 704.604 1239.81 714.749 1238.48 724.221C1237.93 728.168 1238.47 731.231 1240.92 734.488C1242.82 735.63 1244.47 736.222 1246.71 736.1C1249.7 735.939 1252.87 734.308 1255.52 733.045C1271.05 725.646 1272.1 711.275 1279.53 697.688C1283.74 689.989 1289.55 682.771 1295.33 676.204C1310.23 659.267 1333.04 638.527 1356.85 637.261C1365.23 636.815 1374.38 639.859 1380.58 645.574C1387.05 651.533 1390.41 660.056 1390.76 668.714C1395.92 673.296 1401.96 679.363 1403.64 686.277C1403.72 686.605 1403.79 686.935 1403.86 687.262C1403.92 687.496 1403.99 687.727 1404.03 687.963C1404.84 692.31 1393.95 705.537 1391.46 709.298C1387.42 715.411 1377.73 729.463 1379.63 736.781C1380.11 738.653 1380.73 738.802 1382.29 739.73C1389.2 740.628 1400.46 734.289 1405.84 730.204C1407.96 728.581 1409.78 726.595 1411.21 724.337C1414.79 718.724 1416.37 712.064 1419.69 706.311C1428.28 691.436 1440.16 677.546 1445.85 661.189C1447.7 655.852 1445.84 649.206 1446.82 643.586C1447.19 641.436 1448.04 639.626 1449.92 638.454C1452.36 636.93 1456.37 637.172 1459.1 637.72C1465.64 639.03 1471.63 643.969 1475.17 649.478C1478.77 655.077 1479.39 660.28 1478.05 666.686C1492.22 656.298 1506.4 641.493 1524.37 638.123C1530.32 637.007 1536.63 637.363 1541.73 640.912C1548.67 645.751 1550.34 652.543 1551.83 660.344C1554.75 660.399 1575.75 642.989 1582.61 640.103C1589.08 637.38 1595.8 636.564 1602.39 639.375C1608.33 641.91 1614.1 647.158 1616.42 653.27C1625.57 677.421 1588.47 709.96 1579.05 731.073C1577.61 734.317 1576.31 737.937 1577.64 741.423C1579.32 742.82 1579.9 743.249 1582.22 743.253C1586.47 743.261 1591.71 740.941 1595.43 739.068C1618.22 727.602 1626.11 703.858 1638.71 683.593C1644.06 674.933 1650.39 666.916 1657.58 659.7C1671.88 645.534 1689.55 636.393 1710.06 636.561C1719.59 636.639 1729.97 638.542 1736.85 645.701C1741.74 650.789 1743.65 657.722 1743.43 664.652C1743.02 677.835 1734.8 690.87 1725.42 699.657C1708.69 715.329 1688.5 715.009 1667.18 714.305C1667.52 721.154 1664.27 727.199 1665.13 734.426C1665.51 737.554 1666.65 741.083 1669.33 742.992C1673.61 746.035 1680.24 745.464 1685.12 744.554C1707.75 741.277 1729.08 730.35 1741.88 710.809C1745.06 705.967 1746.83 699.042 1751.17 695.151C1753.25 693.294 1754.78 693.342 1757.31 693.623C1759.2 695.009 1760.46 695.763 1760.98 698.245C1762.86 707.353 1750.25 725.531 1744.49 732.595C1729.11 751.474 1705.8 765.26 1681.36 767.6C1664.54 769.21 1647.03 766.301 1636.41 751.97C1633.29 747.757 1630.76 742.377 1626.63 739.1C1626.46 738.968 1626.28 738.846 1626.11 738.718C1625.72 740.266 1625.02 741.084 1623.91 742.203C1612.23 753.95 1586.83 768.909 1569.79 768.589C1561.2 768.427 1553.37 764.102 1547.66 757.865C1518.22 725.756 1576.41 693.275 1577.24 669.41L1577.27 668.492C1574.87 673.906 1559.26 682.434 1554.08 686.531C1541.08 696.814 1528.48 708.815 1518.67 722.235C1505.33 740.49 1510.75 761.345 1507.3 766.471C1506.36 766.802 1505.44 767.013 1504.44 767.095C1498.98 767.543 1493.56 765.477 1489.51 761.899C1454.77 731.207 1511.41 689.323 1510.46 671.385L1509.11 670.455C1508.6 670.55 1508.39 670.58 1507.84 670.734C1496.14 674.063 1464.25 706.698 1456.89 717.77C1452.21 724.807 1448.97 732.491 1446.77 740.637C1444.73 748.209 1445.98 762.883 1443.82 766.774C1443.72 766.953 1443.61 767.126 1443.51 767.302C1432.1 766.893 1425.16 766.314 1418.01 756.392C1415.99 753.576 1414.23 750.595 1411.58 748.311C1411.43 748.183 1411.27 748.063 1411.12 747.939C1410.66 749.057 1410.06 749.989 1409.25 750.893C1400.49 760.594 1383.31 767.114 1370.49 767.135C1345.16 767.177 1351.96 754.508 1341.82 744.737C1341.71 744.63 1341.6 744.531 1341.48 744.429C1340.79 745.986 1339.95 747.469 1338.97 748.857C1332.54 757.951 1320.62 763.879 1309.9 765.791C1299.42 767.659 1287.7 766.757 1279.71 759.03C1276.33 755.758 1273.51 751.858 1269.57 749.21C1269.39 749.084 1269.2 748.963 1269.01 748.84C1268.66 749.85 1268.28 750.408 1267.51 751.15C1257.15 761.121 1241.74 766.974 1227.47 766.675C1219.61 766.511 1211.87 763.437 1206.48 757.58C1183.06 732.137 1232.44 659.684 1246.99 635.626C1257.07 618.96 1267.98 602.094 1275.83 584.234C1280.43 573.753 1283.52 562.478 1283.99 550.997C1284.25 544.702 1283.51 535.993 1279.08 531.108ZM1320.76 738.745C1331.99 737.404 1339.99 728.336 1346.65 719.854C1354.21 710.214 1371.04 691.259 1370.01 678.693C1369.79 676.087 1368.69 673.288 1366.49 671.74C1362.65 669.026 1357.47 670.048 1353.14 670.665C1336.12 681.344 1311.13 702.024 1306.69 722.86C1305.89 726.66 1306.35 730.552 1308.56 733.805C1310.58 736.771 1313.37 738.61 1316.92 739.181C1318.41 739.421 1319.36 739.236 1320.76 738.745ZM1688.22 694.667C1699.18 693.744 1707.92 689.652 1715.09 681.122C1717.95 677.716 1721.64 672.241 1721.49 667.572C1721.46 666.417 1720.88 664.585 1719.96 663.833C1717.99 662.241 1715.99 661.784 1713.5 662.105C1712.42 662.244 1711.34 662.452 1710.27 662.666C1701.4 668.603 1682.31 681.507 1679.92 692.27C1679.74 693.112 1680.32 693.902 1680.67 694.674C1682.93 695.731 1685.84 695.337 1688.22 694.667Z"/>
	<path fill="#AF342B" transform="scale(0.101648 0.101562)" d="M713.323 566.158C719.122 566.288 725.217 567.066 730.534 569.497C736.263 572.116 740.932 576.627 743.015 582.657C747.317 595.111 741.36 607.386 736.008 618.425C742.893 618.095 751.443 617.482 757.8 620.504C760.023 621.561 760.478 622.277 761.256 624.465C760.899 625.706 760.445 626.771 759.54 627.723C751.548 636.129 736.231 635.599 725.612 635.751C716.888 651.239 667.212 719.207 667.27 728.998C667.285 731.444 668.428 733.941 670.306 735.507C695.638 756.635 736.242 694.165 748.832 693.398C749.716 695.119 749.8 695.488 749.475 697.412C746.314 716.153 712.483 746.676 696.819 756.831C685.361 764.258 670.056 767.393 656.658 764.459C644.705 761.841 636.799 755.286 630.35 745.14C621.853 751.404 612.451 756.937 602.536 760.623C586.084 766.74 565.203 768.484 549 760.865C534.903 754.237 528.004 742.256 522.973 728.2C512.906 738.018 502.457 746.856 489.994 753.512C479.804 758.953 466.654 763.802 455.158 760.167C446.059 757.289 441.744 750.271 437.607 742.316C432.868 746.835 427.749 750.938 422.306 754.579C412.768 760.836 400.834 766.034 389.238 763.448C378.268 761.001 372.152 752.643 366.558 743.671C357.869 751.132 349.092 757.986 338.12 761.794C328.308 765.199 317.177 765.567 307.726 760.785C290.042 751.837 292.792 726.482 298.701 711.039C300.996 705.043 306.318 696.934 307.071 690.705C307.175 689.844 306.599 688.153 306.275 687.301C303.473 679.937 294.587 676.133 287.826 673.375C281.833 685.513 269.433 713.3 257.177 719.888C254.683 721.228 253.365 721.125 250.844 720.322C250.464 719.663 250.329 719.519 250.103 718.859C247.403 710.984 270.803 673.198 275.714 664.198C274.364 662.237 273.042 660.256 271.919 658.153C267.18 649.272 266.448 639.389 269.52 629.822C272.853 619.443 280.648 609.83 290.389 604.839C295.876 602.028 302.336 600.704 308.319 602.702C315.81 605.203 319.124 610.649 322.384 617.418C318.694 628.289 310.11 635.028 304.434 644.687C314.036 646.674 324.075 648.508 333.157 652.309C340.285 655.291 349.444 660.429 352.447 668.029C358.464 683.257 341.45 702.112 335.662 715.288C333.726 719.695 331.154 725.322 333.293 730.054C334.107 731.854 335.585 733.4 337.545 733.911C340.349 734.641 344.343 732.983 346.866 731.779C366.434 722.438 376.98 700.198 387.675 682.608C393.132 673.633 399.007 664.695 403.918 655.411C407.945 647.799 411.491 633.055 418.964 628.714C421.465 627.261 423.967 627.225 426.655 628.138C431.507 629.787 436.823 635.294 438.871 639.883C450.309 665.516 415.684 696.743 407.306 719.463C405.794 723.564 404.377 728.191 406.311 732.37C407.63 733.772 408.795 734.506 410.739 734.763C415.362 735.374 419.912 734.089 423.735 731.505C438.094 721.8 472.916 674.818 481.086 657.77C483.948 651.796 484.967 636.737 490.335 633.278C491.811 632.327 493.051 632.064 494.773 632.55C499.327 633.834 504.833 640.341 507.036 644.395C523.724 675.111 489.59 696.189 481.991 722.192C480.998 725.591 480.964 727.697 482.656 730.816C483.435 731.268 484.287 731.719 485.187 731.863C508.721 735.641 564.93 642.468 587.808 627.326C592.917 623.944 599.01 622.036 605.119 623.336C614.31 625.291 619.531 632.732 624.352 640.09C598.608 658.785 615.23 690.575 614.848 716.276C614.712 725.427 612.617 732.853 609.18 741.256C616.78 736.694 624.351 731.968 629.974 724.965C636.322 717.058 639.535 706.422 644.676 697.605C656.67 677.032 669.748 657.035 682.499 636.924C677.174 635.464 671.536 633.85 667.066 630.482C664.899 628.85 664.076 627.59 663.726 624.957C664.104 624.136 664.543 623.279 665.197 622.638C670.665 617.283 685.053 619.03 692.057 619.296C699.691 606.211 706.891 592.05 709.114 576.904C709.776 572.397 709.809 569.407 713.323 566.158ZM538.435 707.816C541.73 715.955 545.139 722.977 551.465 729.295C556.116 732.747 562.757 737.71 568.939 736.744C571.699 736.312 573.876 734.65 575.402 732.358C582.845 721.183 576.932 699.054 576.118 686.197C575.679 679.278 575.894 672.301 576.207 665.38L575.422 664.845C561.973 678.164 549.605 692.533 538.435 707.816Z"/>
	<path fill="#F8F3B7" transform="scale(0.101648 0.101562)" d="M269.635 745.77C272.101 752.993 274.431 760.019 278.175 766.706C288.665 779.354 299.575 789.361 316.752 791.018C332.86 792.572 348.779 786.881 362.642 779.149C376.18 788.502 388.468 792.885 405.158 789.785C413.714 788.196 422.193 785.198 430.187 781.802C432.818 780.291 435.354 778.525 437.912 776.886C463.955 784.384 482.718 784.595 508.546 775.884L518.723 780.534C450.751 825.187 383.143 870.303 313.25 911.935C284.426 929.104 255.348 947.742 224.544 961.166C215.142 965.264 202.917 970.877 192.728 966.655C189.239 965.21 186.274 962.639 184.944 959.027C182.777 953.142 184.486 944.942 185.975 939.072C190.749 920.247 199.497 901.681 206.88 883.746C226.11 837.005 247.042 790.982 269.635 745.77ZM303.475 870.775C320.006 868.158 331.265 852.603 328.591 836.077C325.916 819.55 310.326 808.343 293.813 811.076C277.383 813.796 266.246 829.296 268.907 845.74C271.568 862.185 287.025 873.379 303.475 870.775Z"/>
	<path fill="#AF342B" transform="scale(0.101648 0.101562)" d="M269.635 745.77C272.101 752.993 274.431 760.019 278.175 766.706C250.619 826.288 222.367 886.292 202.558 949.006C227.594 939.807 250.561 926.977 273.713 913.877C314.132 891.009 353.114 865.87 392.235 840.884C418.804 823.914 446.787 807.971 472.292 789.471C458.421 788.02 443.168 787.323 430.187 781.802C432.818 780.291 435.354 778.525 437.912 776.886C463.955 784.384 482.718 784.595 508.546 775.884L518.723 780.534C450.751 825.187 383.143 870.303 313.25 911.935C284.426 929.104 255.348 947.742 224.544 961.166C215.142 965.264 202.917 970.877 192.728 966.655C189.239 965.21 186.274 962.639 184.944 959.027C182.777 953.142 184.486 944.942 185.975 939.072C190.749 920.247 199.497 901.681 206.88 883.746C226.11 837.005 247.042 790.982 269.635 745.77Z"/>
	<path fill="#AF342B" transform="scale(0.101648 0.101562)" d="M293.813 811.076C310.326 808.343 325.916 819.55 328.591 836.077C331.265 852.603 320.006 868.158 303.475 870.775C287.025 873.379 271.568 862.185 268.907 845.74C266.246 829.296 277.383 813.796 293.813 811.076ZM292.661 859.867C286.873 854.067 281.682 848.086 281.579 839.356C281.516 834.066 283.615 829.465 287.348 825.76C290.401 822.731 293.891 821.549 297.165 819.075L294.666 818.587C287.399 821.777 281.666 825.865 278.733 833.539C276.877 838.392 276.966 843.985 279.232 848.686C281.965 854.357 286.813 857.893 292.661 859.867Z"/>
	<path fill="#AF342B" transform="scale(0.101648 0.101562)" d="M376.143 799.413C384.347 796.587 393.291 800.931 396.146 809.126C399.001 817.322 394.692 826.284 386.508 829.17C378.282 832.07 369.266 827.733 366.396 819.494C363.526 811.256 367.896 802.253 376.143 799.413Z"/>
	<path fill="#FEAA05" transform="scale(0.101648 0.101562)" d="M1006.94 552.173C1012.33 552.975 1017.44 555.291 1021.95 558.324C1032.05 565.133 1036.29 577.098 1034.73 588.941C1029.94 625.194 957.98 713.936 963.832 737.591C964.281 739.409 964.688 739.52 966.274 740.459C987.878 740.374 1017.16 690.304 1035.36 684.715L1036.29 685.533C1036.24 685.982 1036.22 686.38 1036.12 686.815C1031.89 705.702 992.057 750.225 974.863 760.585C967.932 764.762 960.309 766.781 952.343 764.661C942.548 762.054 934.989 754.316 930.025 745.782C908.601 708.958 917.592 652.959 928.125 614.128C898.314 651.669 872.149 689.412 856.399 735.185C854.162 741.689 851.925 748.501 850.688 755.279C849.452 762.048 850.839 769.871 847.845 776.159C846.652 777.203 846.022 778.032 844.421 778.325C837.958 779.506 830.371 773.876 825.314 770.348C823.202 767.704 821.477 764.844 820.504 761.578C807.68 718.524 894.556 614.886 915.993 575.682C896.434 580.275 876.589 589.854 860.571 601.949C849.365 610.411 843.901 618.676 841.943 632.525C833.149 632.739 820.938 633.539 813.611 627.912C810.571 625.578 808.306 622.049 807.944 618.181C807.48 613.223 810.213 608.663 813.383 605.089C830.373 585.936 891.234 560.463 916.128 559.343C928.412 558.79 941.798 563.119 950.901 571.548C974.992 593.856 952.175 627.484 945.945 652.377C942.267 667.071 941.483 681.794 942.029 696.884C962.43 648.704 1005.4 606.51 1006.94 552.173Z"/>
	<path fill="#AF342B" transform="scale(0.101648 0.101562)" d="M1192.95 550.664C1193.68 550.625 1194.41 550.59 1195.14 550.56C1212.32 549.855 1253.77 550.174 1266.24 562.084C1269.04 564.756 1269.86 567.498 1269.95 571.276C1270.07 577.027 1269.01 586.851 1264.61 591.084C1262.94 592.687 1261.39 593.062 1259.1 593.007C1251.03 592.815 1242.26 589.799 1234.34 588.127C1222.25 585.51 1209.94 584.037 1197.57 583.727C1197.5 584.011 1197.44 584.297 1197.36 584.58C1194.82 593.698 1158.78 641.783 1150.67 646.248C1163.83 646.035 1178.88 645.739 1191.64 649.229C1195.02 650.152 1199.34 651.774 1200.98 655.131C1201.95 657.125 1201.67 659.511 1200.86 661.508C1197.53 669.686 1187.48 678.668 1179.53 682.372C1177.99 678.7 1174.39 676.098 1170.97 674.303C1159.65 671.113 1146.58 672 1134.89 671.965C1134.13 679.354 1120.9 699.164 1116.97 706.71C1112.09 716.072 1107.12 725.86 1103.72 735.873C1101.26 743.116 1096.24 775.12 1095.22 776.663C1093.57 777.216 1091.85 777.803 1090.1 777.801C1080.89 777.786 1072.65 768.009 1066.65 761.898C1068.8 755.962 1065.63 735.527 1069.69 723.188C1073.57 711.384 1080.14 699.622 1086.41 688.913C1089.09 684.348 1092.53 679.545 1094.58 674.714C1095.08 673.52 1095.12 672.255 1094.95 670.984C1088.78 671.87 1075.19 674.111 1069.61 671.515C1068.41 670.956 1067.82 669.892 1067.45 668.614C1067.08 667.304 1067.29 665.601 1067.95 664.412C1074.18 653.042 1099.77 650.727 1110.83 647.327L1111.36 647.158C1113.31 645.69 1114.63 644.246 1116.06 642.284C1123.55 631.992 1151.63 593.195 1149.93 582.469C1139.02 583.738 1127.89 585.859 1117.69 590.048C1108.18 593.957 1094.99 602.149 1093.24 613.345C1092.55 617.681 1093 622.248 1091.19 626.327C1091.11 626.512 1091.01 626.692 1090.92 626.874C1086.53 623.022 1078.31 621.739 1073.29 617.815C1068.78 614.291 1065.97 608.297 1065.41 602.673C1064.83 596.832 1067.04 591.58 1070.77 587.169C1092.02 562.032 1160.54 553.21 1192.95 550.664Z"/>
	<path fill="#AF342B" transform="scale(0.101648 0.101562)" d="M211.143 546.093C219.792 544.618 230.943 546.178 239.057 549.059C247.945 552.215 256.207 558.135 260.183 566.921C262.874 572.866 263.729 581.417 261.283 587.58C257.207 597.852 245.789 606.367 235.895 610.44C230.651 612.599 225.117 613.955 219.687 611.73C217.697 605.188 227.089 592.707 228.732 585.472C229.3 582.974 229.512 580.12 227.956 577.92C226.246 575.501 223.232 574.913 220.481 574.534C206.008 572.539 191.452 581.68 180.383 590.098C147.84 614.848 113.113 658.644 107.492 700.335C106.265 709.435 106.087 720.243 112.047 727.844C116.185 733.121 122.426 735.519 128.93 736.235C162.761 739.957 200.467 716.621 225.63 696.537C228.005 694.089 230.409 691.415 233.078 689.29C235.286 687.534 237.557 686.981 240.354 687.322C241.67 688.518 242.176 688.783 242.356 690.664C242.973 697.097 236.954 705.497 233.225 710.452C212.104 738.523 174.274 762.512 139.247 767.286C119.85 769.929 98.5298 767.124 82.6575 754.912C71.1477 746.056 64.5321 734.167 62.6405 719.816C57.7346 682.593 78.9132 644.163 100.8 615.772C128.443 579.914 165.385 552.001 211.143 546.093Z"/>
</svg>
