<?xml version="1.0" encoding="utf-8" ?>
<svg xmlns="http://www.w3.org/2000/svg" xmlns:xlink="http://www.w3.org/1999/xlink" width="444" height="444">
	<path fill="#851C1C" transform="matrix(0.433594 0 0 0.433594 0 -3.05176e-05)" d="M452.858 220.508C440.866 236.95 411.023 262.578 414.25 284.1C414.897 288.417 416.919 292.37 420.542 294.914C425.831 298.625 433.241 299.114 439.416 297.841C453.102 295.02 463.225 285.508 470.556 274.074C478.088 262.324 483.177 248.996 488.552 236.168C494.16 222.785 499.86 209.562 506.364 196.579C535.563 137.226 579.152 86.1252 633.159 47.9335C643.593 40.6896 654.878 32.7186 666.667 27.8595C663.016 36.9621 658.365 45.4282 655.173 54.7616C644.289 86.5871 644.312 123.071 657.722 154.151C662.252 164.637 668.249 174.427 675.534 183.225C686.515 196.668 699.753 208.012 711.431 220.799C736.094 247.807 744.76 276.906 731.096 311.634C727.053 321.909 721.573 331.806 715.736 341.163C749.064 313.6 807.323 289.568 850.216 284.955C809.956 307.727 749.899 368.848 737.376 414.41C735.621 420.793 734.575 430.578 738.03 436.52C739.338 438.772 741.569 440.158 744.087 440.666C753.386 442.542 766.61 434.873 773.859 429.74C789.803 418.453 804.695 400.774 814.505 383.808C818.867 376.264 822.321 368.268 826.461 360.621C830.653 368.198 833.306 376.683 835.795 384.952C846.137 419.318 848.893 457.537 838.931 492.353C837.168 498.387 835.094 504.325 832.718 510.145C830.177 516.28 818.658 536.655 821.808 542.017C822.528 543.243 823.356 543.789 824.732 544.127C828.671 545.094 834.312 541.51 837.359 539.173C846.099 532.469 848.666 521.532 850.006 511.174C854.491 515.043 857.914 520.087 861.309 524.906C876.105 545.909 883.7 568.875 885.561 594.394C888.719 637.691 876.69 680.912 847.873 713.963C800.287 768.538 723.181 785.857 654.841 797.175C638.331 799.91 621.686 801.609 605.216 804.683C572.228 810.84 536.742 823.502 510.208 844.509C502.342 850.737 495.675 857.828 488.909 865.187L486.947 864.58C504.547 834.103 544.269 817.074 576.61 807.307C588.164 803.818 600.014 801.356 611.545 797.795C630.635 791.726 649.367 784.586 667.654 776.41C706.205 758.903 742.301 733.376 773.157 704.497C807.842 672.033 838.842 628.24 846.689 580.46C847.816 573.594 848.115 566.793 848.337 559.857C840.134 567.437 832.555 575.541 820.822 576.886C813.501 577.765 806.139 575.599 800.462 570.893C778.08 552.707 795.202 518.412 803.813 497.625C807.32 489.161 810.621 480.489 813.073 471.653C817.807 454.597 818.765 438.269 816.836 420.721C808.798 433.686 801.073 446.518 791.328 458.32C777.965 474.502 760.024 493.481 737.896 495.401C728.304 496.234 719.271 493.451 711.962 487.146C703.048 479.457 698.636 467.984 697.801 456.432C695.673 427.016 715.453 381.613 734.728 359.101C717.392 365.668 706.408 376.368 691.562 386.533C680.561 394.065 662.644 405.031 648.568 402.117C642.325 400.825 636.912 396.683 633.509 391.348C629.577 385.183 628.982 378.036 629.979 370.975C634.081 341.905 658.69 321.822 674.378 298.667C679.038 291.788 683.367 284.333 685.193 276.143C690.137 253.961 671.141 239.762 658.025 225.211C650.812 217.206 644.267 208.622 638.458 199.546C619.781 169.927 617.356 135.307 625.076 101.841C618.009 107.519 611.519 114.499 605.461 121.228C595.071 132.616 585.878 145.04 578.024 158.306C570.861 170.673 565.084 183.816 559.234 196.835C545.577 227.226 531.149 261.808 510.014 287.735C495.574 305.45 476.099 320.9 452.637 323.185C434.762 324.927 411.403 319.48 397.39 307.854C391.164 302.689 387.164 295.738 386.525 287.599C385.425 273.583 394.437 262.231 402.993 252.182C397.446 254.265 392.415 256.714 387.511 260.058C377.222 267.076 368.206 276.057 359.292 284.703C336.434 306.873 315.434 329.951 296.506 355.612C289.35 365.313 278.871 384.207 271.017 391.574C269.785 392.729 268.743 393.345 266.999 393.28C260.115 390.023 253.619 372.57 249.676 365.631C247.119 380.22 245.714 394.987 245.476 409.797C244.909 442.448 248.222 475.932 239.106 507.747C236.354 517.35 223.965 547.581 215.04 552.099C213.655 552.8 212.187 552.968 210.713 552.368C205.442 550.22 200.47 531.223 198.771 525.994C188.913 557.577 171.886 585.188 154.211 612.901C131.603 648.348 89.6538 695.373 97.3876 740.259C102.315 768.854 122.993 790.205 145.861 806.324C148.012 807.883 150.187 809.41 152.383 810.904C153.204 808.94 154.176 807.023 155.084 805.097C172.412 771.318 188.149 736.779 204.545 702.546L277.209 551.666L324.093 454.894L338.149 426.27C340.868 420.815 343.925 415.342 346.285 409.727C350.859 398.844 346.829 386.611 347.437 375.081C348.492 355.084 358.68 322.359 380.369 315.733C399.411 309.915 461.071 339.796 479.098 349.854C572.5 401.964 654.016 482.769 713.431 571.108C722.184 584.123 738.044 604.954 742.327 619.697C745.053 629.08 742.665 638.673 738.031 647.021C728.857 663.549 711.226 673.307 693.56 678.293C678.243 682.616 664.244 681.048 649.364 685.341C622.622 693.056 594.585 703.851 568.204 713.182C519.493 730.192 471.016 747.868 422.789 766.204C426.766 773.684 433.93 788.21 431.291 796.611C430.771 798.265 429.788 799.667 428.217 800.463C425.357 801.914 422.072 801.032 419.253 799.977C418.391 799.652 417.538 799.303 416.696 798.931C414.457 811.562 418.582 824.498 424.659 835.512C432.276 849.317 454.29 870.57 434.336 884.783C429.348 888.336 421.142 889.205 415.234 888.162C407.977 886.881 401.011 882.36 396.802 876.322C392.333 869.913 391.4 861.984 392.871 854.467C396.706 834.875 410.029 823.074 396.448 803.014C391.878 796.265 386.31 790.044 383.095 782.473C371.631 787.438 360.128 792.313 348.588 797.099C340.877 800.236 331.706 802.909 324.721 807.407C322.624 808.758 321.123 810.705 320.175 813.003C314.598 826.525 330.62 849.543 312.483 857.741C308.9 859.36 304.971 859.461 301.34 857.924C296.928 856.056 293.464 852.155 291.766 847.713C288.879 840.161 291.332 831.368 293.462 823.95C277.692 829.496 262.268 836.557 246.779 842.882C222.858 852.488 198.993 862.233 175.185 872.115C175.105 872.289 175.024 872.461 174.947 872.636C167.392 889.843 170.356 914.977 177.154 931.968C183.061 946.733 199.553 967.207 192.783 983.861C190.424 989.664 186.412 994.192 180.533 996.55C172.41 999.808 163.389 998.278 155.621 994.804C145.512 990.282 137.163 981.731 133.28 971.322C128.477 958.449 131.991 945.408 137.533 933.464C144.464 918.527 152.177 904.881 146 888.15C145.48 886.741 144.864 885.368 144.242 884.003C137.855 886.951 122.89 896.276 116.318 894.066C115.12 893.024 114.641 891.973 114.516 890.41C114.338 888.172 115.401 885.75 116.261 883.717C119.742 875.482 124.523 867.599 128.471 859.552C133.262 849.788 137.508 839.192 143.036 829.867C113.041 815.369 86.3418 792.413 75.1703 760.153C65.2092 731.389 72.1351 702.068 85.1168 675.565C113.348 617.928 174.276 566.374 180.451 500.061C181.632 487.381 180.209 474.625 178.709 462.034C193.629 476.725 206.46 491.197 214.1 511.063C215.741 501.979 218.018 493.199 218.701 483.935C219.829 468.646 218.605 453.238 218.133 437.944C217.394 413.962 217.855 390.105 222.117 366.439C233.259 304.56 262 259.881 307.829 217.739C323.855 203.002 341.543 189.529 355.063 172.308C364.289 160.555 371.287 146.032 377.004 132.268C378.925 127.643 379.928 122.428 382.456 118.103C382.388 124.104 380.338 130.563 378.6 136.301C373.299 153.808 363.354 169.791 351.166 183.321C343.887 191.401 336.315 198.847 329.956 207.736C301.802 247.093 272.679 302.546 270.9 351.966C301.058 296.186 339.059 247.576 402.105 228.87C418.859 223.899 435.5 221.903 452.858 220.508ZM210.105 852.949C225.993 846.345 241.896 839.612 257.918 833.34C269.337 828.87 281.264 824.902 292.369 819.706C293.265 819.287 293.663 818.979 294.217 818.164C294.576 816.808 294.601 815.711 294.128 814.37C294.081 814.237 293.971 814.136 293.892 814.018C283.137 818.271 213.537 848.43 209.769 852.639L210.105 852.949Z"/>
	<path fill="#FCF7C2" transform="matrix(0.433594 0 0 0.433594 0 -3.05176e-05)" d="M356.509 411.653L371.107 417.374C364.805 456.371 342.389 471.416 327.723 504.478C320.575 520.593 322.045 537.706 320.044 554.756C318.589 567.154 314.307 578.918 312.175 591.17C307.286 619.268 316.059 651.645 332.655 674.601C334.485 677.132 336.401 679.571 338.515 681.871C334.907 673.654 330.31 665.939 326.615 657.773C317.021 636.57 312.612 612.763 316.596 589.683C318.531 578.478 322.739 567.781 324.149 556.455C326.172 540.195 324.378 524.86 330.471 509.183C343.057 476.798 370.871 455.244 375.181 419.059C392.153 425.5 408.574 433.7 424.393 442.573C480.109 473.825 526.971 516.117 565.196 567.148C579.973 586.875 593.526 607.609 603.658 630.14C606.169 635.724 608.373 641.418 610.59 647.123C574.014 665.183 537.179 682.713 500.096 699.708C487.59 705.451 475.522 712.865 462.505 717.331C444.481 696.721 430.673 679.686 432.704 650.515C436.351 598.148 494.531 546.666 451.165 495.923C438.838 481.5 422.351 472.606 407.774 460.877C401.781 456.056 396.625 450.601 391.568 444.828C398.173 461.457 412.947 469.41 426.713 479.358C467.53 508.856 470.371 539.152 451.233 583.323C438.204 613.394 419.068 646.774 432.289 680.189C438.34 695.484 448.582 707.58 461.281 717.798C451.355 724.219 439.92 728.416 429.246 733.49C410.388 742.684 391.446 751.705 372.424 760.553C360.893 765.834 341.223 773.758 332.263 781.927C324.92 788.622 316.934 805.368 315.058 814.898C312.778 826.48 322.185 846.197 311.802 852.985C309.712 854.351 307.172 854.9 304.727 854.303C301.729 853.572 299.401 851.235 297.925 848.614C289.668 833.949 309.676 812.451 293.084 800.969C280.95 805.42 270.371 812.468 258.568 817.369C265.4 809.929 270.447 802.493 269.994 791.895C268.804 764.095 239.94 756.328 245.262 717.685C247.326 702.702 254.12 689.275 258.169 674.866C261.903 661.578 263.174 647.746 267.843 634.703C274.1 617.223 304.539 571.604 298.242 555.376C297.131 556.134 291.942 574.392 290.796 577.248C283.882 594.486 273.646 609.947 266.457 626.949C260.069 642.055 258.213 658.082 253.768 673.723C249.883 687.393 244.005 700.54 241.401 714.555C239.449 725.056 239.555 735.786 243.278 745.893C249.752 763.47 270.814 779.87 264.738 800.212C262.217 808.655 255.675 815.09 248.594 819.964C239.399 826.293 229.02 830.463 219.049 835.368C207.781 840.912 196.611 846.89 185.082 851.874C197.919 828.674 199.002 815.772 191.443 790.254C191.212 789.473 190.882 788.874 190.407 788.218L189.695 788.244C185.844 794.339 192.976 814.566 191.47 823.829C190.121 832.128 186.135 839.64 182.319 847.016C168.78 873.186 161.467 890.116 168.446 920.405C169.635 925.565 171.174 930.997 173.357 935.824C178.976 948.253 195.755 972.166 186.986 985.543C184.312 989.621 179.442 992.046 174.762 992.943C166.431 994.542 157.172 991.32 150.405 986.482C142.665 980.949 137.553 972.466 136.276 963.037C132.573 936.553 159.522 916.44 151.687 889.968C150.483 885.898 148.104 881.289 144.695 878.615C142.896 877.204 140.641 876.017 138.291 876.526C138.172 876.552 138.062 876.61 137.948 876.652C135.495 877.847 133.124 878.439 130.487 879.034L133.591 872.501C154.896 827.182 177.544 782.513 198.827 737.176C199.516 747.305 200.131 756.752 203.541 766.415C206.311 774.265 210.191 781.808 212.235 789.893C213.569 795.169 213.102 803.183 214.012 806.139C215.466 805.318 216.076 804.723 216.558 803.09C223.007 781.243 195.544 758.974 203.721 728.38C207.12 715.659 215.088 702.729 220.905 690.822L252.592 625.662L299.461 529.216C318.136 489.93 336.398 450.222 356.509 411.653Z"/>
	<path fill="#FFFFFE" transform="matrix(0.433594 0 0 0.433594 0 -3.05176e-05)" d="M133.591 872.501C135.088 873.802 136.749 875.063 137.948 876.652C135.495 877.847 133.124 878.439 130.487 879.034L133.591 872.501Z"/>
	<path fill="#851C1C" transform="matrix(0.433594 0 0 0.433594 0 -3.05176e-05)" d="M366.692 546.779C393.846 545.973 416.522 567.312 417.366 594.466C418.209 621.619 396.901 644.325 369.749 645.206C342.544 646.088 319.784 624.729 318.939 597.523C318.094 570.316 339.484 547.586 366.692 546.779Z"/>
	<path fill="#B7453C" transform="matrix(0.433594 0 0 0.433594 0 -3.05176e-05)" d="M362.226 552.256C386.468 548.959 408.797 565.926 412.117 590.164C415.437 614.403 398.493 636.749 374.257 640.093C349.988 643.442 327.604 626.469 324.28 602.196C320.955 577.924 337.95 555.557 362.226 552.256Z"/>
	<path fill="#851C1C" transform="matrix(0.433594 0 0 0.433594 0 -3.05176e-05)" d="M383.178 571.235C386.872 570.526 390.662 571.865 393.092 574.736C395.521 577.608 396.213 581.567 394.902 585.093C393.591 588.619 390.481 591.164 386.765 591.751C381.149 592.637 375.86 588.857 374.881 583.257C373.902 577.657 377.595 572.306 383.178 571.235Z"/>
	<path fill="#FCF7C2" transform="matrix(0.433594 0 0 0.433594 0 -3.05176e-05)" d="M384.098 574.747C387.829 574.182 391.316 576.735 391.906 580.462C392.495 584.189 389.966 587.694 386.243 588.309C382.484 588.929 378.939 586.371 378.344 582.608C377.748 578.845 380.331 575.317 384.098 574.747Z"/>
	<path fill="#851C1C" transform="matrix(0.433594 0 0 0.433594 0 -3.05176e-05)" d="M347.41 586.072C349.275 586.147 351.248 586.395 352.934 587.238C355.215 588.364 356.892 590.43 357.523 592.894C358.192 595.481 357.657 598.105 356.276 600.361C354.447 603.351 352.032 604.244 348.757 605.036C346.476 604.875 344.533 604.268 342.373 603.585C340.65 601.916 339.09 600.145 338.419 597.784C337.771 595.51 337.968 593.078 339.199 591.037C341.054 587.964 344.09 586.87 347.41 586.072Z"/>
	<path fill="#FCF7C2" transform="matrix(0.433594 0 0 0.433594 0 -3.05176e-05)" d="M345.935 589.758C349.173 588.572 352.76 590.234 353.949 593.47C355.138 596.707 353.481 600.295 350.246 601.488C347.006 602.684 343.41 601.023 342.219 597.781C341.027 594.539 342.692 590.946 345.935 589.758Z"/>
	<path fill="#851C1C" transform="matrix(0.433594 0 0 0.433594 0 -3.05176e-05)" d="M374.656 610.75C379.688 609.187 385.033 612.009 386.579 617.047C388.126 622.085 385.285 627.42 380.243 628.949C375.224 630.472 369.919 627.648 368.38 622.634C366.84 617.62 369.647 612.306 374.656 610.75Z"/>
	<path fill="#FCF7C2" transform="matrix(0.433594 0 0 0.433594 0 -3.05176e-05)" d="M376.22 613.762C379.365 613.143 382.447 615.083 383.248 618.187C384.049 621.29 382.292 624.48 379.24 625.46C377.102 626.148 374.758 625.594 373.154 624.022C371.549 622.45 370.947 620.119 371.591 617.966C372.234 615.814 374.016 614.195 376.22 613.762Z"/>
	<path fill="#851C1C" transform="matrix(0.433594 0 0 0.433594 0 -3.05176e-05)" d="M300.796 680.22C326.532 679.529 347.989 699.766 348.803 725.499C349.616 751.232 329.481 772.784 303.752 773.72C277.85 774.662 256.121 754.362 255.302 728.455C254.483 702.549 274.886 680.917 300.796 680.22Z"/>
	<path fill="#B7453C" transform="matrix(0.433594 0 0 0.433594 0 -3.05176e-05)" d="M299.024 684.737C322.219 683.069 342.387 700.493 344.104 723.686C345.821 746.878 328.439 767.083 305.25 768.848C281.993 770.619 261.715 753.174 259.993 729.912C258.27 706.651 275.759 686.41 299.024 684.737Z"/>
	<path fill="#851C1C" transform="matrix(0.433594 0 0 0.433594 0 -3.05176e-05)" d="M299.012 697.223C303.552 695.937 308.278 698.56 309.588 703.093C310.898 707.626 308.299 712.366 303.773 713.699C299.213 715.043 294.431 712.421 293.111 707.854C291.792 703.288 294.439 698.519 299.012 697.223Z"/>
	<path fill="#FCF7C2" transform="matrix(0.433594 0 0 0.433594 0 -3.05176e-05)" d="M299.614 700.787C302.299 699.766 305.303 701.124 306.31 703.815C307.318 706.506 305.945 709.502 303.249 710.496C300.572 711.483 297.602 710.122 296.601 707.45C295.601 704.779 296.947 701.801 299.614 700.787Z"/>
	<path fill="#851C1C" transform="matrix(0.433594 0 0 0.433594 0 -3.05176e-05)" d="M294.519 741.219C299.017 740.022 303.63 742.714 304.801 747.219C305.971 751.724 303.252 756.322 298.74 757.465C294.265 758.6 289.715 755.908 288.554 751.44C287.393 746.973 290.058 742.406 294.519 741.219Z"/>
	<path fill="#FCF7C2" transform="matrix(0.433594 0 0 0.433594 0 -3.05176e-05)" d="M294.898 744.713C297.515 743.711 300.45 744.996 301.49 747.597C302.529 750.199 301.287 753.153 298.701 754.23C296.994 754.941 295.037 754.677 293.579 753.541C292.121 752.404 291.388 750.57 291.662 748.742C291.935 746.913 293.172 745.374 294.898 744.713Z"/>
	<path fill="#851C1C" transform="matrix(0.433594 0 0 0.433594 0 -3.05176e-05)" d="M318.383 721.78C321.164 720.895 324.206 721.571 326.35 723.551C328.494 725.531 329.409 728.509 328.747 731.352C328.085 734.194 325.947 736.461 323.149 737.29C318.884 738.553 314.396 736.146 313.09 731.894C311.783 727.641 314.145 723.13 318.383 721.78Z"/>
	<path fill="#FCF7C2" transform="matrix(0.433594 0 0 0.433594 0 -3.05176e-05)" d="M318.697 724.765C320.361 724.011 322.302 724.211 323.778 725.289C325.253 726.367 326.034 728.156 325.821 729.971C325.609 731.786 324.436 733.345 322.751 734.053C320.196 735.128 317.252 733.949 316.143 731.409C315.034 728.868 316.172 725.908 318.697 724.765Z"/>
	<path fill="#851C1C" transform="matrix(0.433594 0 0 0.433594 0 -3.05176e-05)" d="M275.893 723.045C276.948 722.92 278.041 722.774 279.104 722.854C281.286 723.018 283.363 724.14 284.751 725.825C286.175 727.554 286.63 729.948 286.292 732.128C285.791 735.366 283.854 737.468 281.36 739.407C280.32 739.627 279.21 739.895 278.142 739.804C276.094 739.628 274.108 738.469 272.878 736.837C271.276 734.71 270.791 731.902 271.288 729.315C271.858 726.354 273.449 724.656 275.893 723.045Z"/>
	<path fill="#FFFFFE" transform="matrix(0.433594 0 0 0.433594 0 -3.05176e-05)" d="M276.736 725.874C278.393 725.977 279.883 726.205 281.255 727.226C282.355 728.045 283.022 729.158 283.132 730.532C283.345 733.189 281.958 734.788 280.317 736.697C278.398 736.667 276.639 736.406 275.216 734.996C274.228 734.016 273.765 732.859 273.766 731.475C273.767 728.851 274.964 727.611 276.736 725.874Z"/>
	<path fill="#851C1C" transform="matrix(0.433594 0 0 0.433594 0 -3.05176e-05)" d="M480.949 605.751C505.775 604.393 527.027 623.362 528.488 648.183C529.948 673.003 511.067 694.333 486.253 695.896C461.293 697.468 439.811 678.452 438.342 653.486C436.873 628.521 455.977 607.117 480.949 605.751Z"/>
	<path fill="#B7453C" transform="matrix(0.433594 0 0 0.433594 0 -3.05176e-05)" d="M479.374 610.77C501.598 608.52 521.422 624.751 523.603 646.981C525.785 669.212 509.494 688.987 487.257 691.1C465.116 693.205 445.445 677 443.273 654.865C441.1 632.73 457.246 613.01 479.374 610.77Z"/>
	<path fill="#851C1C" transform="matrix(0.433594 0 0 0.433594 0 -3.05176e-05)" d="M479.247 666.725C484.383 665.082 489.876 667.923 491.503 673.063C493.131 678.203 490.273 683.688 485.128 685.3C480.005 686.904 474.55 684.062 472.929 678.944C471.309 673.826 474.134 668.362 479.247 666.725Z"/>
	<path fill="#FCF7C2" transform="matrix(0.433594 0 0 0.433594 0 -3.05176e-05)" d="M480.075 670.244C482.175 669.447 484.541 669.848 486.261 671.292C487.98 672.736 488.785 674.997 488.363 677.203C487.942 679.409 486.36 681.214 484.229 681.922C481.029 682.986 477.565 681.295 476.434 678.117C475.304 674.94 476.922 671.441 480.075 670.244Z"/>
	<path fill="#851C1C" transform="matrix(0.433594 0 0 0.433594 0 -3.05176e-05)" d="M457.03 639.521C458.442 639.458 459.892 639.391 461.299 639.551C464.265 639.887 467.333 641.771 469.085 644.172C470.494 646.104 471.116 648.463 470.636 650.824C469.944 654.222 467.74 656.055 464.987 657.877C463.26 658.007 461.451 658.119 459.731 657.843C457.119 657.423 454.444 655.662 452.907 653.53C451.525 651.638 450.978 649.263 451.394 646.957C452.013 643.4 454.232 641.52 457.03 639.521Z"/>
	<path fill="#FCF7C2" transform="matrix(0.433594 0 0 0.433594 0 -3.05176e-05)" d="M460.21 642.792C463.462 642.392 466.452 644.623 466.995 647.854C467.538 651.084 465.442 654.17 462.239 654.856C460.037 655.328 457.753 654.552 456.293 652.837C454.834 651.121 454.434 648.743 455.252 646.644C456.07 644.546 457.975 643.066 460.21 642.792Z"/>
	<path fill="#851C1C" transform="matrix(0.433594 0 0 0.433594 0 -3.05176e-05)" d="M506.396 641.739C509.609 640.679 513.143 641.445 515.628 643.741C518.113 646.036 519.157 649.5 518.353 652.786C517.55 656.072 515.027 658.664 511.763 659.554C506.897 660.882 501.858 658.091 500.403 653.261C498.948 648.431 501.606 643.321 506.396 641.739Z"/>
	<path fill="#FCF7C2" transform="matrix(0.433594 0 0 0.433594 0 -3.05176e-05)" d="M507.633 644.77C510.762 643.928 513.983 645.772 514.842 648.896C515.701 652.021 513.874 655.252 510.754 656.127C507.611 657.009 504.35 655.166 503.484 652.018C502.619 648.87 504.48 645.618 507.633 644.77Z"/>
	<path fill="#851C1C" transform="matrix(0.433594 0 0 0.433594 0 -3.05176e-05)" d="M486.152 619.223C490.782 617.885 495.628 620.516 497.028 625.128C498.427 629.74 495.861 634.621 491.268 636.082C488.242 637.045 484.932 636.304 482.604 634.144C480.277 631.984 479.292 628.738 480.026 625.649C480.761 622.559 483.101 620.104 486.152 619.223Z"/>
	<path fill="#FCF7C2" transform="matrix(0.433594 0 0 0.433594 0 -3.05176e-05)" d="M486.556 622.227C489.598 621.312 492.806 623.032 493.727 626.072C494.649 629.112 492.935 632.323 489.897 633.25C486.85 634.18 483.628 632.46 482.704 629.412C481.781 626.364 483.507 623.145 486.556 622.227Z"/>
	<path fill="#851C1C" transform="matrix(0.433594 0 0 0.433594 0 -3.05176e-05)" d="M498.938 544.741C510.152 543.196 520.48 551.076 521.952 562.299C523.425 573.522 515.479 583.799 504.246 585.199C493.116 586.587 482.953 578.729 481.494 567.607C480.035 556.486 487.827 546.272 498.938 544.741Z"/>
	<path fill="#B7453C" transform="matrix(0.433594 0 0 0.433594 0 -3.05176e-05)" d="M501.178 548.742C510.165 548.532 517.643 555.603 517.937 564.588C518.231 573.573 511.232 581.117 502.25 581.496C493.148 581.88 485.48 574.765 485.182 565.66C484.884 556.555 492.07 548.954 501.178 548.742Z"/>
	<path fill="#851C1C" transform="matrix(0.433594 0 0 0.433594 0 -3.05176e-05)" d="M385.496 685.234C396.298 683.806 406.201 691.437 407.573 702.246C408.945 713.056 401.262 722.918 390.446 724.234C379.709 725.539 369.935 717.926 368.573 707.196C367.211 696.466 374.773 686.652 385.496 685.234Z"/>
	<path fill="#B7453C" transform="matrix(0.433594 0 0 0.433594 0 -3.05176e-05)" d="M385.292 689.272C393.871 687.555 402.227 693.084 404 701.652C405.773 710.22 400.297 718.612 391.74 720.439C383.106 722.283 374.622 716.746 372.833 708.101C371.044 699.455 376.635 691.006 385.292 689.272Z"/>
	<path fill="#851C1C" transform="matrix(0.433594 0 0 0.433594 0 -3.05176e-05)" d="M377.239 485.776C385.948 483.885 394.527 489.459 396.338 498.184C398.148 506.91 392.495 515.437 383.754 517.167C375.125 518.875 366.732 513.312 364.945 504.699C363.158 496.087 368.644 487.643 377.239 485.776Z"/>
	<path fill="#B7453C" transform="matrix(0.433594 0 0 0.433594 0 -3.05176e-05)" d="M379.189 489.24C385.821 488.415 391.896 493.039 392.866 499.651C393.835 506.263 389.344 512.437 382.755 513.55C378.363 514.292 373.914 512.6 371.126 509.127C368.338 505.654 367.647 500.944 369.321 496.817C370.994 492.689 374.77 489.791 379.189 489.24Z"/>
	<path fill="#851C1C" transform="matrix(0.433594 0 0 0.433594 0 -3.05176e-05)" d="M561.127 621.779C569.302 621.598 576.109 628.01 576.417 636.181C576.725 644.352 570.42 651.259 562.254 651.694C556.858 651.981 551.726 649.338 548.826 644.779C545.926 640.219 545.709 634.45 548.257 629.685C550.806 624.92 555.725 621.898 561.127 621.779Z"/>
	<path fill="#B7453C" transform="matrix(0.433594 0 0 0.433594 0 -3.05176e-05)" d="M560.093 625.062C561.471 625.14 562.812 625.252 564.141 625.648C567.311 626.594 570.096 628.757 571.549 631.758C572.86 634.488 573.017 637.631 571.985 640.478C570.449 644.701 567.444 646.571 563.603 648.389C561.979 648.388 560.367 648.409 558.808 647.886C555.92 646.934 553.534 644.862 552.188 642.135C550.75 639.148 550.601 635.701 551.775 632.6C553.39 628.423 556.228 626.767 560.093 625.062Z"/>
	<path fill="#851C1C" transform="matrix(0.433594 0 0 0.433594 0 -3.05176e-05)" d="M142.901 954.288C146.3 957.439 149.026 970.296 155.535 976.718C160.535 981.652 169.738 981.793 171.759 983.604L171.515 984.647C168.778 985.52 165.929 985.901 163.077 985.396C157.232 984.361 152.451 980.497 149.046 975.784C144.769 969.863 141.678 961.627 142.901 954.288Z"/>
	<path fill="#EC794C" transform="matrix(0.433594 0 0 0.433594 0 -3.05176e-05)" d="M655.496 39.4851C655.975 39.9194 655.976 39.7888 655.906 40.7276C655.607 44.7551 651.097 52.9133 649.585 57.1862C648.298 60.825 647.401 64.7335 646.52 68.4954C641.026 91.9624 641.261 117.848 648.029 141.023C654.347 162.657 666.959 181.031 682.185 197.348C703.089 219.748 725.193 235.558 732.011 267.466C738.899 299.703 719.216 327.688 702.534 353.295C716.759 347.414 728.155 337.027 741.1 328.969C768.775 311.742 798.566 301.062 830.016 293.025C792.982 320.641 758.334 355.503 738.958 398.044C734.133 408.638 727.923 424.073 732.607 435.717C734.083 439.387 736.899 442.685 740.596 444.238C746.847 446.863 755.052 444.386 761.066 441.959C788.226 430.996 814.461 397.813 825.714 371.423C828.203 376.359 830.158 381.673 831.882 386.918C846.567 431.852 842.915 480.768 821.721 523.025C818.771 528.904 814.555 536.715 817.02 543.403C817.822 545.578 819.342 547.174 821.462 548.096C825.402 549.811 830.177 548.976 833.999 547.347C845.128 542.604 849.225 531.139 853.381 520.774C857.734 527.211 862.381 533.552 866.169 540.343C875.481 557.042 879.638 576.543 881.073 595.489C884.199 636.75 871.641 679.718 844.382 711.173C804.269 757.461 738.657 777.123 680.585 788.143C664.148 791.262 648.002 794.311 631.279 795.459C688.978 776.664 748.152 739.328 789.665 695.007C818.023 664.732 844.337 625.393 851.055 583.696C853.03 571.439 852.881 559.216 852.488 546.857C845.543 557.068 836.192 568.255 823.756 571.67C817.904 573.277 811.578 572.562 806.396 569.337C781.749 553.999 800.486 517.352 808.449 497.74C812.974 486.596 817.708 475.17 820.29 463.385C824.232 445.386 822.939 427.182 818.847 409.356C801.055 436.63 779.937 476.971 747.389 488.405C738.739 491.444 729.585 492.11 721.145 487.921C713.23 483.992 707.574 476.43 704.852 468.146C695.193 438.738 713.005 402.159 727.926 377.068C731.207 371.551 737.529 364 739.79 358.707C740.346 357.405 740.229 356.863 739.738 355.58C738.282 354.336 736.621 354.027 734.805 353.532C718.132 358.73 703.725 371.786 689.574 381.678C679.03 389.049 663.064 400.125 649.437 397.422C645.012 396.544 641.015 394.045 638.504 390.271C635.322 385.49 634.718 379.626 635.027 374.033C637.201 334.681 682.948 311.794 689.8 276.815C694.3 253.841 677.352 239.041 663.169 223.816C656.386 216.534 649.963 208.926 644.458 200.62C622.09 166.864 623.838 129.708 631.373 91.8748C606.209 109.538 588.05 132.276 572.769 158.669C554.047 192.735 541.544 230.2 521.373 263.409C508.022 285.39 487.852 310.507 461.775 316.695C443.738 320.975 420.518 317.123 404.809 307.293C398.393 303.278 393.14 297.475 391.576 289.862C388.004 272.48 404.877 258.438 413.373 245.224L413.821 244.521C404.083 246.349 394.78 249.419 386.345 254.734C377.685 260.192 370.369 267.986 362.978 275.002C342.486 294.452 322.199 314.535 304.968 336.995C292.101 353.767 281.122 371.767 267.716 388.156C264.016 382.496 253.276 358.357 248.164 356.142C246.69 357.029 245.982 358.798 245.515 360.445C244.305 364.708 244.562 369.908 244.023 374.354C240.109 406.664 241.964 438.764 240.29 471.14C239.815 480.349 238.614 489.506 236.697 498.526C232.47 517.582 224.355 533.634 212.479 548.979C205.537 537.705 204.536 524.238 196.207 513.542C191.416 555.52 150.265 609.113 127.352 644.532C109.169 672.639 85.4478 708.093 93.1022 743.087C100.206 775.562 123.437 797.278 150.351 814.497C148.801 818.358 146.989 822.034 145.103 825.741C131.005 818.721 117.044 810.051 105.762 799.014C95.8323 789.347 87.8754 777.842 82.3329 765.14C55.3977 703.318 111.339 642.714 143.692 595.325C157.303 575.388 170.102 554.269 178.247 531.44C184.935 512.695 185.701 494.46 185.455 474.81C193.578 483.788 202.021 494.234 206.934 505.326C209.48 511.075 210.904 517.366 214.155 522.778C216.705 518.464 218.163 513.218 219.446 508.405C226.278 482.769 223.007 457.477 222.486 431.424C222.176 415.922 222.296 400.421 223.951 384.991C231.349 316.025 268.581 254.241 322.254 211.085C290.217 259.129 264.95 309.137 266.542 368.237C272.592 359.232 277.571 349.414 283.093 340.071C291.425 325.949 300.554 312.312 310.436 299.227C334.867 266.956 368.865 242.467 408.079 231.711C419.646 228.538 431.421 226.823 443.288 225.212C432.082 238.342 417.125 253.126 411.206 269.573C408.695 276.553 407.982 284.729 411.342 291.561C414.009 296.985 418.648 300.379 424.343 302.14C440.659 307.183 458.949 296.825 469.117 284.502C479.323 272.132 485.162 256.511 491.431 241.923C495.783 231.738 500.256 221.606 504.85 211.529C530.669 154.504 569.603 104.391 618.475 65.2767C630.269 55.834 642.235 46.7759 655.496 39.4851Z"/>
	<path fill="#FCF7C2" transform="matrix(0.433594 0 0 0.433594 0 -3.05176e-05)" d="M385.265 324.696C390.585 324.734 395.912 325.71 401.053 327.018C416.78 331.016 431.998 337.883 446.701 344.636C537.891 386.524 622.905 465.093 682.593 545.247C694.117 560.723 705.24 576.467 715.042 593.1C698.864 587.657 683.502 587.221 666.879 591.058C655.884 594.09 644.388 598.252 635.362 605.435C631.557 608.463 628.154 611.998 624.376 615.09C624.177 614.386 623.966 613.685 623.743 612.988C619.525 599.822 611.382 586.601 604.472 574.696C562.458 502.313 496.096 443.172 421.584 405.779C406.217 398.141 390.317 391.626 374.009 386.285C369.487 384.815 361.659 384.454 358.252 382.701C357.404 381.577 356.914 380.704 356.668 379.3C354.752 368.324 362.952 344.337 369.525 335.198C373.585 329.553 378.272 325.844 385.265 324.696Z"/>
	<path fill="#851C1C" transform="matrix(0.433594 0 0 0.433594 0 -3.05176e-05)" d="M387.216 336.191C395.412 335.712 404.118 337.982 411.912 340.27C439.78 348.448 465.949 362.626 490.546 377.813C561.555 421.656 643.027 494.11 683.36 568.187C677.06 563.398 667.202 546.092 661.755 538.956C652.403 526.925 642.731 515.146 632.75 503.632C579.127 442.725 505.018 382.614 429.94 350.556C421.874 347.053 413.622 343.991 405.223 341.383C399.251 339.578 393.109 338.232 387.216 336.191Z"/>
	<path fill="#FCF7C2" transform="matrix(0.433594 0 0 0.433594 0 -3.05176e-05)" d="M684.232 598.692C695.663 596.933 710.492 599.827 720.097 606.36C726.244 610.54 730.909 616.715 732.199 624.159C733.567 632.051 730.777 639.777 726.108 646.057C714.02 662.317 692.87 669.103 673.666 671.901C660.179 673.053 645.388 671.443 634.344 662.901C628.954 658.732 625.208 652.944 624.427 646.084C623.5 637.928 626.772 630.162 631.722 623.858C644.552 607.521 664.34 601.026 684.232 598.692Z"/>
	<path fill="#FCF7C2" transform="matrix(0.433594 0 0 0.433594 0 -3.05176e-05)" d="M357.689 383.651C369.204 387.045 380.869 392.84 391.937 397.526C467.433 429.488 531.906 478.992 580.077 545.615C587.874 556.397 595.962 567.497 602.613 579.001C609.659 591.192 615.438 604.31 623.778 615.696C621.852 618.513 620.202 621.447 618.543 624.426L615.515 630.374C605.411 607.555 592.359 586.231 577.829 565.978C536.428 507.927 482.202 460.201 419.362 426.51C408.515 420.71 397.399 415.121 385.989 410.505C377.346 407.008 368.458 404.185 359.88 400.513C358.201 394.751 357.207 389.694 357.689 383.651Z"/>
	<defs>
		<linearGradient id="gradient_0" gradientUnits="userSpaceOnUse" x1="504.84009" y1="635.62891" x2="461.18414" y2="827.76178">
			<stop offset="0" stop-color="#FFF6BE"/>
			<stop offset="1" stop-color="#FFFFE6"/>
		</linearGradient>
	</defs>
	<path fill="url(#gradient_0)" transform="matrix(0.433594 0 0 0.433594 0 -3.05176e-05)" d="M616.457 659.945C619.614 661.228 623.795 668.564 626.939 671.297C630.36 674.271 634.195 676.047 638.322 677.81C587.395 697.217 535.256 713.58 484.298 732.938C436.554 751.075 389.997 772.273 343.288 792.882C339.358 794.808 331.9 799.202 327.368 798.449L327.212 797.643C328.365 796.052 329.355 795.132 331.103 794.208C338.803 790.138 347.267 786.844 355.206 783.222C373.63 774.992 391.97 766.576 410.222 757.973L616.457 659.945Z"/>
	<path fill="#FCF7C2" transform="matrix(0.433594 0 0 0.433594 0 -3.05176e-05)" d="M418.321 768.028C418.498 768.226 418.681 768.418 418.853 768.621C422.279 772.66 427.936 788.69 427.308 793.723C427.142 795.054 426.793 795.456 425.742 796.212C423.184 796.518 420.521 795.136 418.054 794.529C416.523 794.153 414.841 794.042 413.533 795.115C410.7 797.438 411.15 802.812 411.404 806.078C412.148 815.641 414.381 825.04 418.642 833.665C423.722 843.947 438.755 858.826 438.012 870.279C437.779 873.867 435.987 876.972 433.264 879.266C428.324 883.427 422.545 883.739 416.428 883.331C414.556 882.696 412.643 882.062 410.83 881.269C406.016 879.163 401.7 875.488 399.378 870.728C390.299 852.119 410.562 833.834 406.864 814.507C404.298 801.096 392.157 793.401 387.502 781.017C397.854 776.982 408.064 772.323 418.321 768.028Z"/>
	<path fill="#851C1C" transform="matrix(0.433594 0 0 0.433594 0 -3.05176e-05)" d="M403.127 853.342C405.249 858.473 405.853 863.914 409.138 868.59C412.53 873.419 421.921 875.303 423.829 879.462C421.568 879.509 419.396 879.541 417.185 878.963C411.965 877.647 407.504 874.268 404.824 869.6C401.977 864.594 401.697 858.829 403.127 853.342Z"/>
	<path fill="#851C1C" transform="matrix(0.433594 0 0 0.433594 0 -3.05176e-05)" d="M951.923 424.249C951.936 424.392 951.97 424.535 951.962 424.678C951.746 428.673 949.247 432.445 947.281 435.796C931.297 463.039 900.913 460.099 878.843 479.783C878.367 478.195 878.787 476.829 879.272 475.291C887.629 448.774 911.628 442.247 934.485 432.862C940.499 430.392 946.198 427.312 951.923 424.249Z"/>
	<path fill="#B7453C" transform="matrix(0.433594 0 0 0.433594 0 -3.05176e-05)" d="M944.035 432.569L944.308 432.882C944.285 433.357 944.309 433.506 944.102 434.005C943.437 435.606 941.678 437.5 940.557 438.894C927.583 455.024 905.967 459.22 888.475 468.305L887.698 468.712L887.254 468.083C887.335 467.493 887.311 467.431 887.587 466.793C888.261 465.231 889.899 463.447 890.947 462.083C903.614 445.6 926.07 441.013 944.035 432.569Z"/>
	<path fill="#851C1C" transform="matrix(0.433594 0 0 0.433594 0 -3.05176e-05)" d="M858.965 167.031L859.364 167.707C857.32 172.102 854.256 176.414 851.251 180.211C837.199 197.973 817.641 203.159 798.431 213.088C792.389 216.211 786.987 219.873 781.58 223.958L781.215 223.452C781.293 222.855 781.367 222.354 781.557 221.779C783.01 217.37 785.648 213.181 788.149 209.306C800.696 189.861 819.891 184.762 840.112 176.359C846.624 173.653 852.781 170.401 858.965 167.031Z"/>
	<path fill="#B7453C" transform="matrix(0.433594 0 0 0.433594 0 -3.05176e-05)" d="M848.498 176.573L848.799 176.95C848.769 177.082 848.754 177.218 848.707 177.345C848.123 178.95 845.876 180.894 844.696 182.148C830.877 196.834 810.333 203.569 792.211 211.345C791.745 210.677 791.88 210.541 791.899 209.758C793.058 207.451 794.907 205.675 796.707 203.854C810.703 189.7 830.73 184.358 848.498 176.573Z"/>
	<path fill="#851C1C" transform="matrix(0.433594 0 0 0.433594 0 -3.05176e-05)" d="M464.405 52.1888C465.174 52.5889 465.265 52.4227 465.533 53.3308C466.491 56.5846 465.84 61.0846 465.427 64.4212C462.771 85.8681 450.356 98.0396 439.572 115.358C435.492 121.911 432.484 128.858 428.968 135.693C428.441 135.733 428.757 135.776 428.125 135.24C424.948 107.677 433.469 90.5819 450.461 69.7432C454.979 64.2037 460.125 58.7452 464.029 52.7719L464.405 52.1888Z"/>
	<path fill="#B7453C" transform="matrix(0.433594 0 0 0.433594 0 -3.05176e-05)" d="M461.329 63.4057C461.819 63.906 461.777 63.7092 461.867 64.4287C463.425 76.8667 440.824 107.725 433.57 118.061C432.792 117.109 432.934 115.928 433.025 114.754C434.429 96.7604 447.888 74.9252 461.329 63.4057Z"/>
	<path fill="#757278" fill-opacity="0.011764706" transform="matrix(0.433594 0 0 0.433594 0 -3.05176e-05)" d="M145.861 806.324C147.995 805.045 150.811 804.528 153.149 803.616C152.704 802.639 152.512 802.632 152.757 801.53L154.274 800.873L155.002 801.21L154.112 802.557C154.46 803.395 154.784 804.241 155.084 805.097C154.176 807.023 153.204 808.94 152.383 810.904C150.187 809.41 148.012 807.883 145.861 806.324Z"/>
	<path fill="#B7453C" fill-opacity="0.94901961" transform="matrix(0.433594 0 0 0.433594 0 -3.05176e-05)" d="M486.947 864.58L488.909 865.187L482.304 873.877C483.564 870.619 485.261 867.63 486.947 864.58Z"/>
	<path transform="matrix(0.433594 0 0 0.433594 0 -3.05176e-05)" d="M621.972 107.31L622.387 107.962C620.961 109.619 619.256 111.095 617.677 112.608L617.265 112.187C617.346 111.943 617.419 111.697 617.507 111.455C618.251 109.421 620.127 108.227 621.972 107.31Z"/>
</svg>
